<svg width="203.47999267578123px" height="126.24000854492188px" xmlns="http://www.w3.org/2000/svg" viewBox="148.2600036621094 11.879995727539061 203.47999267578123 126.24000854492188" style="background: rgba(5, 17, 3, 0) none repeat scroll 0% 0%;" preserveAspectRatio="xMidYMid"><defs><linearGradient id="editing-glowing-gradient" x1="0.8146601955249185" x2="0.18533980447508147" y1="0.8885729807284856" y2="0.11142701927151444"><stop offset="0" stop-color="#67ff43"></stop><stop offset="1" stop-color="#90ffff"></stop></linearGradient><filter id="editing-glowing" x="-100%" y="-100%" width="300%" height="300%"><feGaussianBlur in="SourceGraphic" result="blur" stdDeviation="10"></feGaussianBlur><feMerge><feMergeNode in="blur"></feMergeNode><feMergeNode in="SourceGraphic"></feMergeNode></feMerge></filter></defs><g filter="url(#editing-glowing)"><g transform="translate(181.35999703407288, 97.39999961853027)"><path d="M16-39.68L16-5.12L23.36-5.12L23.36-5.12Q29.70-5.12 33.25-9.47L33.25-9.47L33.25-9.47Q36.80-13.82 36.80-22.59L36.80-22.59L36.80-22.59Q36.80-31.42 33.34-35.55L33.34-35.55L33.34-35.55Q29.89-39.68 23.68-39.68L23.68-39.68L16-39.68ZM23.04 0L3.84 0L3.84-3.84L9.28-5.12L9.28-39.68L3.84-40.96L3.84-44.48L16-44.80L24-44.80L24-44.80Q28.74-44.80 32.48-43.36L32.48-43.36L32.48-43.36Q36.22-41.92 38.82-39.14L38.82-39.14L38.82-39.14Q41.41-36.35 42.78-32.29L42.78-32.29L42.78-32.29Q44.16-28.22 44.16-22.98L44.16-22.98L44.16-22.98Q44.16-17.73 42.66-13.50L42.66-13.50L42.66-13.50Q41.15-9.28 38.40-6.27L38.40-6.27L38.40-6.27Q35.65-3.26 31.74-1.63L31.74-1.63L31.74-1.63Q27.84 0 23.04 0L23.04 0ZM61.44 0L43.84 0L43.84-3.84L49.09-5.06L63.68-44.48L70.08-44.80L84.29-5.06L89.60-3.84L89.60 0L71.04 0L71.04-3.84L76.99-5.06L74.56-12.16L57.92-12.16L55.42-5.06L61.44-3.84L61.44 0ZM72.83-17.28L66.37-36.54L59.65-17.28L72.83-17.28ZM105.28 0L87.68 0L87.68-3.84L92.93-5.06L107.52-44.48L113.92-44.80L128.13-5.06L133.44-3.84L133.44 0L114.88 0L114.88-3.84L120.83-5.06L118.40-12.16L101.76-12.16L99.26-5.06L105.28-3.84L105.28 0ZM116.67-17.28L110.21-36.54L103.49-17.28L116.67-17.28Z" fill="url(#editing-glowing-gradient)"></path></g></g><style>text {
  font-size: 64px;
  font-family: Arial Black;
  dominant-baseline: central;
  text-anchor: middle;
}</style></svg>