<?xml version="1.0" encoding="UTF-8"?>
<svg id="Layer_2" data-name="Layer 2" xmlns="http://www.w3.org/2000/svg" viewBox="0 0 145.87 106.24">
  <defs>
    <style>
      .cls-1 {
        fill: #002f87;
      }

      .cls-2 {
        fill: #006937;
      }

      .cls-3 {
        fill: #fff;
      }

      .cls-4 {
        fill: #ff4713;
      }
    </style>
  </defs>
  <g id="Layer_1-2" data-name="Layer 1">
    <g>
      <path class="cls-1" d="M120.16,75.5c.28,0,.53,.02,.53,.32,0,.32-.43,.26-.75,.26h-.36v-.58h.58Zm.24,.92c.31-.01,.62-.18,.62-.64,0-.49-.38-.62-.8-.62h-.98v2.33h.34v-1.08h.43l.6,1.08h.39l-.59-1.08h0Zm-.36,1.97c1.16,0,2.08-.92,2.08-2.07s-.92-2.08-2.08-2.08-2.08,.92-2.08,2.08,.92,2.07,2.08,2.07h0Zm0-3.81c.95,0,1.74,.76,1.74,1.74s-.79,1.74-1.74,1.74-1.74-.76-1.74-1.74,.79-1.74,1.74-1.74h0Z"/>
      <path class="cls-4" d="M72.49,7.25h0c-.08-.06-.16-.12-.24-.18-.04-.03-.08-.06-.13-.1-.2-.15-.4-.3-.59-.45,0,0-.02,0-.02-.02-.19-.14-.38-.28-.57-.41-.02-.01-.03-.02-.05-.03-.18-.12-.37-.25-.54-.37-.02-.02-.05-.03-.07-.05-.17-.11-.34-.22-.51-.32-.04-.02-.07-.04-.1-.06-.16-.1-.31-.19-.47-.28-.05-.03-.1-.05-.15-.08-.14-.08-.28-.16-.42-.23-.07-.04-.14-.07-.21-.11-.11-.06-.23-.12-.34-.17-.18-.09-.36-.16-.53-.23-1.22-.49-2.49-.8-3.78-.93-.65-.07-1.29-.09-1.94-.07-.37,.01-.74,.04-1.11,.08-.11,.01-.22,.03-.33,.04-.26,.03-.52,.07-.77,.12-.12,.02-.25,.05-.37,.07-.25,.05-.51,.11-.76,.18-.11,.03-.22,.05-.32,.09-.7,.2-1.38,.45-2.04,.75-.1,.05-.2,.1-.31,.15-.22,.11-.44,.22-.66,.34-.11,.06-.23,.13-.33,.19-.21,.12-.41,.25-.6,.38-.1,.07-.2,.13-.3,.2-.26,.18-.5,.37-.74,.57-.03,.02-.06,.04-.08,.07h0c-.15,0-.31,0-.46,0-4.46-2.52-10.53-3.12-15.21-1.35,0,0,0,0-.01,0-.32,.12-.63,.26-.94,.4-.02,.01-.04,.02-.06,.03-.3,.14-.6,.3-.89,.46-.8,.44-1.55,.96-2.25,1.54,0,0,0,0,0,0-.7,.58-1.35,1.22-1.94,1.92h0c-.16,.19-.32,.39-.48,.59-.01,.02-.03,.04-.04,.06-.14,.19-.28,.38-.41,.57-.03,.04-.06,.08-.08,.12-.12,.18-.24,.36-.35,.54-.04,.06-.08,.13-.12,.19-.1,.16-.19,.33-.28,.5-.05,.09-.1,.19-.15,.29-.08,.14-.15,.29-.22,.43-.07,.14-.13,.28-.19,.41-.05,.11-.1,.22-.15,.34-.09,.21-.17,.42-.24,.64-.02,.05-.04,.09-.05,.14-.09,.27-.18,.55-.26,.83C13.02,22.08,3.15,33.15,3.15,45.6c0,.42,.01,.85,.04,1.27,0,.11,.01,.23,.02,.34,.02,.36,.06,.71,.1,1.07,0,.07,.01,.14,.02,.21,.05,.41,.11,.82,.19,1.23,.02,.1,.04,.21,.06,.31,.06,.33,.13,.66,.21,.99,.02,.1,.04,.19,.07,.29,.1,.4,.21,.8,.33,1.2,.03,.08,.06,.17,.08,.25,.1,.33,.21,.65,.33,.98,.04,.11,.08,.21,.12,.32,.15,.39,.3,.79,.47,1.17,.02,.05,.04,.09,.06,.14,.15,.35,.32,.69,.48,1.04,.05,.11,.11,.22,.16,.33,.17,.34,.35,.68,.54,1.02,.03,.05,.05,.09,.08,.14,.21,.38,.44,.75,.67,1.12,.07,.1,.13,.21,.2,.31,.19,.3,.39,.6,.59,.89,.06,.08,.11,.17,.17,.25,.25,.36,.51,.72,.78,1.07,.07,.09,.14,.18,.22,.28,.22,.28,.44,.56,.67,.84,.08,.1,.16,.19,.24,.29,.29,.35,.59,.69,.9,1.03,.06,.07,.12,.13,.19,.2,.26,.28,.53,.56,.8,.85,.1,.1,.2,.2,.3,.3,.32,.32,.65,.64,.99,.96,.03,.03,.06,.06,.09,.08,.34,.31,.69,.62,1.04,.93,.11,.1,.22,.19,.33,.29,.31,.26,.62,.52,.93,.78,.08,.06,.15,.13,.23,.19,.38,.31,.77,.61,1.17,.91,.12,.09,.23,.17,.35,.26,.32,.23,.64,.47,.96,.7,.11,.08,.23,.16,.34,.24,.42,.29,.84,.58,1.27,.86,.11,.07,.22,.14,.33,.21,.35,.22,.7,.45,1.05,.66,.13,.08,.27,.17,.41,.25,.45,.27,.9,.54,1.36,.8,.07,.04,.15,.08,.23,.12,.4,.23,.81,.45,1.23,.68,.15,.08,.3,.16,.45,.24,.42,.22,.84,.44,1.26,.65,.08,.04,.16,.08,.24,.12,.49,.24,.99,.48,1.49,.72,.15,.07,.31,.14,.47,.22,.4,.18,.81,.36,1.22,.54,.13,.06,.27,.12,.4,.17,.52,.22,1.04,.44,1.57,.65,.15,.06,.3,.12,.45,.18,.42,.17,.84,.33,1.26,.48,.16,.06,.32,.12,.49,.18,.54,.2,1.09,.39,1.64,.59,.12,.04,.25,.08,.38,.13,.45,.15,.91,.3,1.37,.45,.18,.06,.36,.12,.55,.17,.54,.17,1.08,.33,1.62,.49,.08,.02,.16,.04,.24,.07,.57,.16,1.15,.32,1.73,.47,.19,.05,.39,.1,.58,.15,.58,.15,1.16,.3,1.75,.44,.06,.02,.13,.03,.19,.05,.82,.19,1.65,.37,2.48,.55,.1,.02,.2,.04,.3,.06,.81,.17,1.64,.32,2.46,.47,.14,.02,.28,.05,.42,.07,.81,.14,1.63,.27,2.45,.39,.16,.02,.32,.05,.48,.07,.82,.12,1.65,.22,2.48,.32,.16,.02,.32,.04,.48,.06,.84,.09,1.69,.18,2.54,.26,.15,.01,.3,.02,.45,.04,.87,.07,1.75,.14,2.63,.19,.12,0,.25,.01,.37,.02,.91,.05,1.83,.09,2.76,.12,.08,0,.15,0,.23,0,.97,.03,1.95,.04,2.94,.04,2.86,0,5.67-.11,8.44-.33,.03,0,.06,0,.09,0,1.21-.1,2.4-.21,3.58-.35,.19-.02,.38-.04,.57-.06,.61-.07,1.22-.15,1.82-.24,.07,0,.13-.02,.2-.02,.56-.08,1.13-.17,1.69-.25,.11-.02,.23-.04,.34-.05,.26-.04,.53-.09,.79-.13,.07-.01,.14-.02,.21-.04,.33-.06,.67-.11,1-.17,.48-.09,.95-.18,1.43-.27,.18-.03,.37-.07,.55-.11,.5-.1,1-.21,1.5-.32,.13-.03,.27-.06,.4-.09,.47-.1,.93-.22,1.39-.33,.18-.04,.36-.09,.54-.13,.37-.09,.73-.19,1.08-.28,.26-.07,.52-.13,.78-.2,.38-.1,.75-.21,1.12-.32,.25-.07,.5-.14,.75-.21,.4-.12,.8-.24,1.19-.36,.22-.06,.43-.13,.64-.2,.37-.12,.74-.24,1.1-.36,.23-.08,.45-.15,.68-.23,.32-.11,.63-.22,.95-.33,.26-.09,.51-.18,.77-.28,.33-.12,.65-.24,.97-.37,.26-.1,.52-.2,.78-.3,.32-.13,.64-.26,.96-.39,.24-.1,.48-.2,.72-.3,.03-.01,.06-.03,.09-.04,.25-.11,.49-.21,.74-.32,.26-.12,.53-.23,.79-.34,.32-.14,.63-.29,.94-.44,.22-.1,.44-.2,.65-.31,.27-.13,.53-.26,.8-.4,.26-.13,.51-.25,.76-.38,.3-.15,.59-.31,.88-.46,.21-.11,.41-.22,.62-.33,.13-.07,.25-.14,.38-.21,.1-.06,.21-.12,.31-.18,.26-.15,.53-.29,.78-.45,.07-.04,.14-.09,.21-.13,.2-.11,.38-.23,.58-.34,.21-.12,.41-.25,.61-.37,.27-.17,.54-.34,.8-.51,.2-.12,.39-.25,.58-.37,.12-.08,.24-.16,.35-.24,.1-.07,.21-.14,.31-.21,.22-.15,.45-.3,.67-.46,.25-.18,.49-.35,.74-.53,.18-.13,.36-.26,.53-.39,.24-.18,.47-.36,.7-.54,.18-.14,.35-.27,.53-.41,.24-.19,.47-.38,.7-.57,.16-.13,.33-.27,.49-.41,.23-.19,.45-.39,.67-.59,.15-.13,.3-.27,.45-.4,.23-.21,.46-.43,.68-.64,.19-.18,.39-.37,.57-.55-2.59,1.07-6,1.84-10.04,.73-.01,0-.03,0-.04,0h0c-10.55,7.57-26.77,12.42-44.95,12.42-31.8,0-57.59-14.83-57.59-33.11,0-9.75,7.33-18.52,18.99-24.58,.03-.02,.06-.03,.09-.05,.59-.3,1.19-.6,1.8-.89,.12-.06,.24-.11,.36-.17,.6-.28,1.2-.56,1.82-.82,0,0,.02-.01,.03-.01,0-.07,0-.14,0-.2,0-4.35,2.38-8.17,6.15-9.6,3.81-1.45,9.07-.72,12.4,1.66,1.05-.07,2.77-.02,3.55,0,2.22-2.96,7.07-4.16,10.91-2.6,.96,.39,2.28,1.48,3.82,2.74,.6,.49,1.21,.99,1.83,1.48,8.61,.36,16.7,1.8,23.84,4.1,2.07-.27,3.94-.79,5.41-1.69,.72-.67,1.31-1.17,1.78-1.52h0c-8.76-3.44-19-5.63-30.03-6.15h0Z"/>
      <path class="cls-4" d="M124.96,38.59c-.2-.02-.52,1.2-.6,1.43-.13,.35-.14,.46-.05,.83,.07,.28,.13,.56,.19,.84,.23,1.13,.36,2.27,.38,3.43,.03,1.22-.06,2.45-.26,3.65-.05,.28-.1,.56-.16,.84-.06,.31,.12,.33,.31,.55,.26,.29,.45,.63,.59,1,.39,.97,.49,2.1,.38,3.14,.76-.3,1.75-.56,2.55-.26,.98,.37,.83,1.54,.73,2.38,1.65-3.37,2.59-7.07,2.59-10.82,0-3.29-.72-6.54-2-9.56-1.11,1.09-2.93,2.71-4.63,2.54h0Z"/>
      <path class="cls-4" d="M100.32,52.12c1.42-1.01,2.44-2.18,3.36-3.63-3.33-1.22-6.4-2.96-9.68-4.32-2.92-1.21-6.03-2.55-9.18-3-.38-.06-.47-.02-.8,.22-.31,.23-.64,.44-.97,.62-.47,.26-.99,.48-1.53,.52-.73,.06-1.36-.3-1.68-.95-.14-.29-.23-.61-.27-.93-.02-.15-.49-.11-.62-.13-.47-.04-.95-.09-1.42-.14-.11-.01-.62-.14-.71-.07-.23,1.17-.76,2.29-1.38,3.3-.77,1.24-1.86,2.67-3.24,3.26-.99,.42-2.29,.16-2.52-1.03-.13-.64,.16-1.31,.12-1.97-.04-.61-.2-1.3-.65-1.75-.24-.05-.81,.28-1.05,.37-.27,.09-.47,1.22-.61,1.52-.54,1.21-1.36,2.29-2.34,3.18-.76,.69-1.62,1.3-2.57,1.71-.84,.35-2.32,.48-2.74-.57-.27-.68,.24-1.36,.45-1.99,.22-.68,.33-1.39,.34-2.1,0-.18,.08-.86-.06-1-.34-.35-1.12,.75-1.33,.94-1.11,1.04-2.38,1.92-3.74,2.59-1.05,.52-2.47,1.21-3.67,.89-.5-.14-.92-.49-1.04-1-.14-.61,.16-1.12,.42-1.64,.47-.97,.87-2.05,.93-3.13,.03-.51-2.36-.99-2.8-1.09-.07-.01-.78-.22-.81-.16-.15,.23-.28,.47-.41,.71-.61,1.14-1.12,2.45-1.1,3.76,0,.6,.04,1.13-.47,1.54-.44,.36-1.06,.43-1.61,.36-2.44-.29-4.37-2.98-5.03-5.18-4.11,1.99-4.18,7.76-3.41,11.61,.4-.08,1.3-.27,1.3-.27,0-.58,.19-1.21,.27-1.44,.46-1.37,1.23-2.79,2.27-3.81,.97-.95,2.98-1.53,3.49,.2,.43,1.47,.43,3.04,1.66,4.15,.11-.62,.3-1.23,.54-1.81,.46-1.1,1.22-2.43,2.41-2.85,1.05-.37,2.2,.21,2.22,1.39,.01,.8-.05,1.51,.17,2.3,.21,.75,.53,1.46,.9,2.14,.21,.39,.44,.77,.69,1.14,.2,.32,.28,.66,.68,.5,.54-.22,.98-.64,1.3-1.12,.34-.51,.56-1.1,.64-1.7,.07-.58-.03-1.16,.16-1.73,.35-1.04,1.38-1.01,2.23-.6,2.57,1.25,2.94,4.34,3.36,6.85,1.97-.72,3.08-2.67,3.65-4.58,.26-.88,.43-1.78,.52-2.7,.07-.77,.04-1.88,.92-2.22,.91-.34,2,.33,2.71,.82,.84,.57,1.6,1.27,2.31,1.99,.17,.18,.34,.36,.51,.54,.03,.03,.95-.43,1.06-.47,.71-.28,1.56-.41,2.15-.91,.97-.79,1.55-1.99,1.79-3.2,.18-.91-.2-2.17,.61-2.83,1.02-.84,2.45,.06,3.31,.72,1.17,.88,2.15,2.01,2.99,3.2,.47,.66,.89,1.35,1.26,2.07,.16,.32,.32,.65,.45,.98,.1,.24,.19,.85,.46,.77,1.34-.38,2.49-1.41,3.28-2.52,.36-.52,.69-1.1,.85-1.72,.13-.54,.38-1.12,.86-1.43,.87-.56,1.95,.08,2.56,.73,.85,.91,1.23,2.4,1.54,3.56,.43,1.58,.72,3.26,.65,4.9,1.84-.38,3.58-1.29,5.1-2.38h0Z"/>
      <path class="cls-4" d="M111.94,50.96c-1.51-.35-3-.76-4.48-1.21,.32,1.59,.34,3.27,.21,4.88,1.67-.82,3.12-2.24,4.27-3.67h0Z"/>
      <path class="cls-3" d="M135.65,23.7c-.17,.41-.58,1.16-1.04,1.75-.18,.23-.19,.33-.21,.62-.1,1.24-.61,5.11-3.8,8.89,.12,.26,.24,.53,.35,.8,2.7,6.39,2.67,13.53-.07,19.9-.63,1.48-1.4,2.86-2.27,4.18-2.74,2.93-5.86,4.69-8.87,5.51-.97,.24-4.27,.93-7.09,.16-.96-.26-2.35-.31-5.41-.28-.92,1.06-2.39,2.35-5.8,3.22-1.34,.34-5.59,1.18-11.32,.74-.44,.69-.82,1.32-3.52,1.95-.19,.05-5.74,1.53-12.62,.88-.18,.92-.29,1.77-4.67,2.56-.04,0-4.7,.96-8.75,.94-.66,0-8.58,.31-12.67-2.3-6.64,.63-13.38-2.19-13.5-2.24-5.05-1.93-12.41-6.58-14.33-14.17-1.63-1.05-6.03-4.69-6.47-7.99,0,0,0,0,0-.01-.01-.15-.14-2.22,1.65-3.96,.65-.63,2.75-2.5,4.49-3.37-1.19-3.1-1.28-4.55-1.29-4.58-.33-3.31,2.12-4.49,2.85-4.82,1.08-.45,2.78-.88,4.46-1.09-.77-1.45-1.27-3.15-1.02-4.72,.17-.88,.7-2.2,1.84-2.99,.45-.32,2.6-1.81,7.18-2.89-.42-2.73,.49-5.08,.52-5.16,.72-2.04,2.04-3.31,2.07-3.34,1.2-1.2,2.72-1.96,4.37-2.36,3.26-.71,7.26-.07,10.48,2.16,1.51-.11,4.15,0,4.15,0,.01-.02,2.43-3.88,8.05-3.22,1.51,.18,2.42,.31,5.76,3.13,2.23,1.89,5.09,3.96,6.06,4.2,1.91,.26,7.55,1.34,12.9,1.7,1.82,.07,4.46,.38,8.19-.22,2.71-.43,4.08-1.22,4.53-1.48,1.17-.69,1.75-1.89,3.82-3.02,1.07-.59,3.79-1.71,5.94-2.01,1.35-.19,3.46-.55,5.57,.52,1.01-.72,1.97-1.22,2.72-1.54,2.34-1,5.1-1.16,7.14,.56,1.98,1.67,2.66,5.02,5.46,5.67,1.76,.41,3.36,1.44,4.14,3.11,.68,1.46,.63,3.16,.02,4.63h0Zm-10.04,40.26c-10.95,12.77-32.95,21.52-58.24,21.52-11.46,0-22.73-1.81-32.6-5.24-9.63-3.34-17.77-8.15-23.52-13.91C5.03,60.12,1.74,52.95,1.74,45.6c0-6.34,2.48-12.64,7.18-18.21,4.35-5.17,10.67-9.78,18.25-13.34,1.54-4.71,5.18-8.56,9.77-10.29,4.8-1.82,11-1.37,15.83,1.13,4.28-3.27,10.27-4.06,15.3-2.01,1.45,.59,3.15,1.63,4.92,3,11.15,.58,21.75,2.89,30.93,6.66-.23,.1-.69,.32-1.41,.87h0c-.48,.35-1.07,.85-1.78,1.52-1.47,.9-3.34,1.42-5.41,1.69-5.36,.69-12.06-.36-16.57-1.06-1.3-.2-2.43-.38-3.3-.48-1.21-.51-2.61-1.49-3.97-2.56-.62-.49-1.24-.99-1.83-1.48-1.54-1.26-2.86-2.35-3.82-2.74-3.84-1.56-8.69-.36-10.91,2.6-.79-.03-2.5-.08-3.55,0-3.33-2.39-8.59-3.11-12.4-1.66-3.77,1.43-6.15,5.24-6.15,9.6,0,.07,0,.14,0,.2-2.8,1.2-5.4,2.56-7.77,4.03,2.37-1.47,4.97-2.83,7.77-4.03,0,.25,.02,.51,.04,.76-3.31,.81-6,2.23-6.97,2.98-1.33,1.04-2.09,2.74-2.09,4.52,0,.51,.06,1.02,.19,1.53,.12,.47,.3,.99,.55,1.54-1.64,.29-3.17,.74-4.09,1.22-1.85,.96-2.87,2.68-2.87,4.73,0,.38,.03,.76,.1,1.16,.17,.97,.58,2.4,1.04,3.67-1.7,1.03-3.73,2.67-4.54,3.67-1.08,1.35-1.41,2.63-1.41,3.7,0,1.13,.38,2.02,.64,2.51,.8,1.47,3.33,4.75,5.95,6.33,3.13,11.53,18.65,17.54,28.3,16.71,4.43,2.79,16.55,3.08,24.85,.55,1.24-.38,1.78-1.11,2.03-1.72,5.61,.48,12.2-.54,14.8-1.84,.46-.23,.86-.58,1.17-1.01,4.22,.27,13.19,.28,17.04-3.99,1.88-.03,3.82-.01,4.7,.21h0s.03,0,.04,.01c4.04,1.11,7.45,.33,10.04-.73-.2,.2-.41,.39-.61,.58,.12-.11,.23-.21,.35-.32,.02-.02,.12-.12,.28-.26,1.14-.57,1.99-.86,3.11-1.66,.19-.14,.39-.3,.6-.47-.1,.13-.41,.57-.45,.59h0Zm11.59-45.62c-.94-2.02-2.88-3.51-5.33-4.07-.99-.23-1.59-1.1-2.49-2.51-.63-.98-1.28-1.99-2.24-2.8-1.33-1.12-3.01-1.71-4.86-1.71-1.32,0-2.73,.31-4.09,.88-.73,.31-1.45,.69-2.2,1.16-.29-.1-.6-.19-.92-.26-.68-.15-1.41-.22-2.18-.22s-1.62,.07-2.56,.23c-1.75,.28-4.34,1.32-5.7,1.89h-.03c-9.25-3.81-19.95-6.15-30.96-6.77-1.75-1.3-3.43-2.3-4.89-2.9-2.05-.83-4.24-1.26-6.5-1.26-3.46,0-6.84,1.01-9.63,2.86-2.82-1.27-6.07-1.96-9.26-1.96-2.48,0-4.92,.42-7.03,1.22-4.83,1.83-8.73,5.78-10.55,10.66-7.53,3.63-13.8,8.28-18.18,13.48C2.62,32.16,0,38.85,0,45.6c0,7.82,3.46,15.41,10.01,21.97,5.94,5.94,14.3,10.89,24.19,14.32,10.05,3.49,21.52,5.33,33.18,5.33,24.98,0,47.76-8.44,59.49-22.03,.12-.12,1.8-2.35,1.8-2.35,1.62-2.15,2.88-4.27,3.83-6.49,2.93-6.81,2.97-14.3,.14-21.12,.34-.45,.67-.94,.98-1.44,.69-1.12,1.25-2.3,1.67-3.5,.45-1.29,.74-2.61,.86-3.95,.13-.16,.24-.33,.35-.49,.31-.47,.58-.97,.79-1.49,.82-2,.79-4.19-.06-6.02h0Z"/>
      <path class="cls-3" d="M64.85,54.63c1.66-1.31,3.7-2.02,5.61-2.87-.52-1.09-1.63-1.94-2.55-2.68-.62-.49-1.91-1.35-1.72,.17,.11,.86-.1,1.8-.29,2.64-.22,.94-.52,1.93-1.05,2.75h0Z"/>
      <path class="cls-3" d="M75.93,49.9c1.19-.32,2.54-.26,3.76-.14,1.43,.13,3.01,.41,4.21,1.25-.18-.73-.63-1.4-1.03-2.03-.53-.82-1.11-1.59-1.74-2.34-.6-.71-1.24-1.46-2-2.01-.57-.42-1.53-.73-1.3,.36,.35,1.63-.63,3.91-1.9,4.92h0Z"/>
      <path class="cls-3" d="M90.88,47.44c-.15,.58-.44,1.12-.76,1.62-.77,1.24-1.93,2.5-3.41,2.84,1.11,.41,2.22,.84,3.31,1.32,1.17,.51,2.41,1.04,3.42,1.84,.31-1.38,.02-2.93-.25-4.3-.24-1.21-.49-2.66-1.18-3.72-.49-.76-.94-.31-1.13,.39h0Z"/>
      <path class="cls-3" d="M42.86,49.29c-.02-.37-.07-.84-.49-.98-.88-.3-1.75,1.1-2.11,1.69-.6,1.01-1.06,2.18-1.12,3.36,1.64-.47,3.81-.79,5.47-.2-.74-.66-1.19-1.7-1.49-2.63-.13-.4-.25-.82-.27-1.24h0Z"/>
      <path class="cls-3" d="M48.64,48.72c-.67,.33-1.07,1.25-1.36,1.88-.42,.93-.75,1.98-.71,3.01,.59,.18,1.16,.48,1.7,.77,.77,.4,1.52,.83,2.24,1.32,.48,.31,1.04,.66,1.37,1.13,0-.84-.54-1.79-1-2.46-.78-1.13-1.51-2.78-1.5-4.17,0-.49,.29-1.97-.74-1.47h0Z"/>
      <path class="cls-3" d="M53.61,56.47c-.17,.18-.31,.38-.41,.61-.15,.34-.01,.42,.27,.63,.37,.29,.79,.5,1.24,.63,.86,.26,1.79,.23,2.66,.05,.4-.08,2.09-.42,2.11-.91,.05-.97-.1-1.95-.35-2.89-.26-.99-.65-1.98-1.26-2.81-.26-.35-.62-.82-1.1-.81-.46,.01-.61,.5-.51,.88,.23,.86-.26,1.98-.67,2.71-.49,.87-1.31,1.22-1.97,1.9h0Z"/>
      <path class="cls-3" d="M119.57,55.82c.21-.04,.41-1.07,.45-1.25,.12-.52,.18-1.05,.18-1.58,0-.61-.3-2.48-1.29-2.11-.67,.25-1.13,1.33-1.54,1.88,.05,1.1-.12,2.22-.25,3.31,.81,.05,1.65-.1,2.45-.25h0Z"/>
      <path class="cls-3" d="M111.95,56.83c.76-.02,1.51-.07,2.26-.18,.32-.05,.64-.1,.95-.18,.41-.1,.38-.22,.44-.61,.24-1.53,.36-3.13,.24-4.68-.04-.5-.08-1.37-.59-1.64-.57-.31-1.07,.7-1.24,1.07-.57,1.21-1.64,2.27-2.6,3.18-1.17,1.12-2.51,2.23-4.03,2.84,1.51,.21,3.05,.25,4.57,.2h0Z"/>
      <path class="cls-3" d="M123.97,54.87c.72-.53,.59-2.2,.43-2.96-.08-.39-.28-1.04-.73-1.15-.47-.12-.63,.58-.79,.87-.36,.63-.85,1.2-1.35,1.72-.06,.73-.29,1.46-.5,2.16,.94,.05,2.16-.07,2.94-.64h0Z"/>
      <path class="cls-3" d="M103.76,56.68c.35,0,.69,0,1.04,0,.28,0,.75,.11,.82-.19,.42-1.78,.38-3.64,.32-5.46-.01-.43,.09-1.52-.48-1.69-.51-.15-.93,.66-1.09,1-.65,1.4-1.94,2.48-3.18,3.34-1.33,.92-2.82,1.7-4.39,2.13,1.41,.51,2.97,.65,4.46,.75,.84,.06,1.67,.09,2.51,.11h0Z"/>
      <path class="cls-3" d="M46.09,42.74c.26-.97,.66-1.9,1.14-2.78,.14-.25,.15-.27-.11-.39-.13-.06-.27-.11-.4-.14-.33-.09-.67-.13-1.01-.14-1.44-.07-3.31,.15-4.51,1.03,.21,1.85,1.02,3.82,2.54,4.97,.43,.33,1.54,1.01,1.96,.32,.23-.37,.09-.93,.12-1.34,.04-.52,.13-1.03,.27-1.53h0Z"/>
      <path class="cls-3" d="M118.88,36.03c1.04-2.12,2.08-4.64,2.04-7.05,0-.25-.02-.49-.07-.74-.06-.31-.13-.29-.44-.26-.61,.05-1.21,.23-1.79,.44-1.15,.41-2.11,1.01-3.12,1.66-.69,.44-1.39,.86-2.13,1.19-.35,.16-.7,.3-1.07,.41,.07,.31,.12,.62,.16,.93,.2,1.44,.2,2.92,.11,4.37-.07,1.27-.2,2.55-.45,3.8-.1,.47-.38,1.14-.06,1.57,.29,.39,.88,.22,1.24,.06,1.33-.59,2.47-1.92,3.39-3,.89-1.03,1.58-2.17,2.18-3.4h0Z"/>
      <path class="cls-3" d="M121.94,38.1c1.22-1.3,2.22-2.82,3.08-4.37,.97-1.75,1.81-3.61,2.29-5.55-1.43-.48-3.24-.51-4.72-.3,.33,1.81-.13,3.75-.67,5.48-.55,1.78-1.29,3.52-2.19,5.16-.35,.63-.28,1.29,.57,.9,.64-.29,1.17-.81,1.64-1.32h0Z"/>
      <path class="cls-3" d="M128.81,28.42c-.17,1.86-1.15,3.7-2.04,5.31-.42,.76-.92,1.46-1.36,2.2-.57,.95,.38,.96,1.04,.62,1.75-.91,3.07-2.75,4.1-4.38,.94-1.48,2.07-3.39,2.07-5.21-.65,.06-1.2,.67-1.7,1.03-.58,.42-1.42,.52-2.11,.42h0Z"/>
      <path class="cls-3" d="M81.23,41.01c.67,.51,1.97-.62,2.41-1.06,.79-.78,1.39-1.75,1.83-2.76,.48-1.1,.8-2.31,.78-3.52,0-.29,.05-.47-.24-.56-.19-.06-.39-.08-.59-.1-.45-.03-.89,.03-1.33,.13-1.74,.38-3.67,1.33-4.94,2.6,.91,.78,1.64,1.8,1.87,2.99,.08,.42,.1,.85,.05,1.27-.04,.31-.12,.77,.17,.99h0Z"/>
      <path class="cls-3" d="M51.91,46.08c-.02,.56,.73,.49,1.09,.41,2.15-.49,4.79-2.02,5.77-4.07-1.66-.14-3.56-.59-5.07-1.3,.09,1.23-.52,2.57-1.08,3.63-.2,.39-.69,.9-.71,1.34h0Z"/>
      <path class="cls-3" d="M71.13,45.76c.54,.33,1.17-.27,1.53-.61,1.91-1.81,3.31-4.83,2.76-7.49-.72,.68-1.62,1.19-2.48,1.67-.94,.53-1.9,1.03-2.89,1.44,.67,1.02,1.09,2.4,1,3.63-.03,.42-.4,1.07,.07,1.36h0Z"/>
      <path class="cls-3" d="M61.1,47.49c-.17,.52,.36,.63,.75,.53,1.26-.34,2.48-1.6,3.26-2.59,.79-1,1.44-2.21,1.53-3.51-1.44,.52-3.24,.83-4.77,.7,.16,1.17,0,2.43-.27,3.57-.11,.47-.36,.85-.5,1.29h0Z"/>
      <path class="cls-3" d="M105.31,35.29c-1.22,.41-2.54,.78-3.84,.82,.73,1.42,.77,3.31,.64,4.87-.05,.57-.36,1.26-.18,1.81,.26,.83,1.26,.38,1.74,.05,2.95-2.07,4.76-5.88,5.22-9.38-.93,.93-2.36,1.44-3.58,1.84h0Z"/>
      <path class="cls-3" d="M90.79,40.06c-.13,.5-.3,1.11,.35,1.32,1.21,.38,2.92-.99,3.78-1.68,1.23-.99,2.39-2.31,2.73-3.89-2.38-.4-4.68-1.22-6.97-1.96,.49,1.39,.46,3.01,.36,4.46-.04,.58-.1,1.19-.25,1.75h0Z"/>
      <path class="cls-3" d="M48.7,24.76c-1.11,.18-1.3-.26-.57-.94,.47-.44,1.07-1.44,.97-2.11-.37-.5-2.37-2.11-3.18-2.28-1.61,3.78-.27,6.49,2.44,6.93,2.3,.37,4.18,.1,5.49-1.91,0,0-2.14-.84-2.64-1.34-.5,.8-1.67,1.5-2.51,1.64h0Z"/>
      <path class="cls-2" d="M15.96,47.22c-.7,1.31-.14,2.44,.68,3.51,.86,1.13,1.87,2.19,3,3.05-.01-.23-.02-.46-.02-.69,0-3.4,.43-6.83,1.46-10.08-1.02,.49-1.96,1.18-2.85,1.88-.85,.66-1.76,1.36-2.28,2.33h0Z"/>
      <path class="cls-2" d="M30.49,30.17c.1-.09,.57-.39,.58-.52,.01-.34,.03-.67,.04-1.01,.04-.88,.11-1.62,.36-2.48,.36-1.22,.81-2.47,1.45-3.58-1.79,.49-3.79,1.23-5.27,2.38-2.28,1.77-.24,5.11,.98,6.84,.64-.51,1.24-1.09,1.86-1.64h0Z"/>
      <path class="cls-2" d="M27.42,32.84c-1.7,.06-3.49,.37-5.09,.97-1.39,.52-2.11,1.65-1.85,3.15,.26,1.42,.73,2.84,1.29,4.17,1.26-3.13,3.16-6,5.65-8.29h0Z"/>
      <path class="cls-2" d="M64.76,14.75c.33,.2,.47,.2,.84,.2,.27,0,.54,0,.81,.01,1.85,.06,3.7,.28,5.53,.54-.74-.12-1.48-.71-2.08-1.12-.95-.65-1.86-1.35-2.73-2.09-1.25-1.07-2.81-1.81-4.48-1.84-1.71-.03-3.31,.7-4.62,1.77,1.54,.31,3.05,.73,4.49,1.37,.77,.34,1.52,.73,2.24,1.16h0Z"/>
      <path class="cls-2" d="M86.36,66.2c-.35-.18-.71-.33-1.09-.44-.4-.11-.76-.06-1.17-.03-.72,.05-1.43,.1-2.15,.14-1.61,.1-3.21,.18-4.82,.24-3.05,.12-6.11,.2-9.16,.07-.38-.02-.84-.18-1.04,.2-.1,.19-.14,.4-.12,.61,.06,.59,.55,1.06,1,1.39,1.13,.82,2.68,1.33,4.04,1.65,2.89,.68,5.95,.66,8.89,.42,2.17-.18,4.4-.48,6.48-1.15,.53-.17,1.99-.56,1.34-1.28-.65-.71-1.33-1.37-2.19-1.83h0Z"/>
      <path class="cls-2" d="M94.14,65.04c-.43-.06-.86-.12-1.29-.2-.33-.06-.7,.06-1.03,.11-.75,.11-1.49,.21-2.24,.29-.51,.06-1.29,0-1.66,.45-.32,.39,.07,.82,.43,.99,2.8,1.33,6.19,1.4,9.21,1.08,2.47-.26,5.56-.78,7.5-2.49-3.63,.08-7.31,.23-10.92-.23h0Z"/>
      <path class="cls-2" d="M71.12,71.18c-.65-.24-1.3-.47-1.96-.69-1.7-.57-3.46-1.09-5.25-1.27-.94-.09-1.72-.08-2.58,.3-1.14,.51-2.31,.96-3.49,1.36-2.36,.81-4.79,1.44-7.24,1.9,3.31,1.32,7.27,1.33,10.78,1.17,1.92-.08,3.83-.28,5.73-.59,.97-.16,1.94-.36,2.89-.59,.65-.16,1.73-.26,2.25-.7,.54-.44-.84-.79-1.14-.9h0Z"/>
      <path class="cls-2" d="M118.17,21.65c-2.11,0-3.92-.9-4.92-1.71-1-.8-1.31-.6-1.81-.1-.5,.5-2.31,2.01-3.61,2.21-1.31,.2-1.91-.8-1-1.91,.65-.79,2.86-2.25,3.81-2.41,1.21-.2,2.62-.1,3.11,.6,1.2,1.71,2.81,2.21,4.51,2.51,1.2,.21,1.2,.8-.1,.8h0Zm-59.47,2.61l-2.01,.4c-3.14,4.01-7.56,6.02-12.48,5.32-1.23-.18-1.31-.81,.1-.81s3.61-.2,4.72-1.4c-5.22-.1-6.32-4.82-4.82-9.73-.6-.2-1.66,.33-2.51,.7-.9,.4-1-.13-.4-.77,1.57-1.65,3.35-2.54,5.08-1.74,1.74,.8,3.05,3.33,4.95,4.82,3.08,2.41,5.08,2.41,7.22,2.01,1.05-.2,1.47,.81,.14,1.2h0Zm71.39-7.26c-1.35-.64-2.51-1.29-3.42-2.52-.51-.69-.76-1.54-1.35-2.17-1.93-2.09-5.25-.86-7.21,.52,.82,.58,1.42,1.53,2.06,2.3,.69,.82,1.41,1.68,2.37,2.19,1.11,.58,2.11-.25,3.23-.04,.66,.13,.39,.53,.28,.99-.07,.29,.42,.49,.51,.77,.33,1-2.53,.11-2.91-.01-1.28-.43-2.48-1.07-3.58-1.84-1-.7-1.85-1.52-2.71-2.37-.57-.57-1.18-1.11-1.93-1.44-2.26-1.01-5.23-.42-7.43,.47-2.19,.88-4.53,2.17-6.19,3.89-.87,.9-1.67,1.82-2.66,2.59-.61,.48-1.26,.9-1.97,1.24-.53,.26-1.38,.7-1.98,.61-.66-.1,.04-.56,.26-.69,.38-.22,.74-.48,1.09-.75,.82-.62,1.81-1.33,2.35-2.23-1.71,.66-3.73,.73-5.53,.82-2.37,.12-4.76,.1-7.12-.13-2.22-.22-4.41-.7-6.61-1.05-3.21-.51-6.43-.92-9.67-1.14-1.72-.12-3.44-.07-5.16-.19-1.26-.09-2.36-1-3.52-1.44-2.39-.89-5.11-1.5-7.68-1.43,.78,1.52,2.35,2.67,3.69,3.65,.6,.43,1.2,.85,1.83,1.24,.3,.19,1.41,.67,1.17,1.12-.32,.58-1.71-.19-2.06-.36-.89-.43-1.73-.98-2.53-1.57-1.64-1.2-3.12-2.6-4.67-3.91-2.03-1.72-4.29-2.74-6.99-2.74-2.48,0-5.46,.85-6.89,3.04-1.33,2.05-1.37,4.9-.68,7.18,.17,.56,.39,1.1,.69,1.6,.16,.26,.62,.86,.45,1.2-.28,.55-1.96-1.11-2.2-1.35-1.01,1.71-1.95,3.66-1.78,5.71,.08,.99,.44,1.93,.99,2.76,.16,.25,1.2,1.37,.85,1.73-.33,.34-1.33-.53-1.55-.71-.24-.2-1.03-1.2-1.3-1.05-1.26,.72-2.43,1.58-3.49,2.57-3.99,3.7-6.26,8.91-7,14.24-.39,2.78-.52,5.68,.31,8.39,.73,2.42,2.12,4.59,3.85,6.41,3.81,4,9.16,6.43,14.51,7.53,2.64,.54,5.23,.65,7.9,.3,2.86-.37,5.68-1.12,8.4-2.1,2.47-.89,4.91-1.99,7.1-3.46,.46-.31,.9-.74,1.4-.97,.63-.29,1.37-.3,2.05-.28,1.1,.03,2.19,.09,3.29,.11,5.41,.07,10.86-.15,16.25-.62,1.14-.1,2.27-.21,3.41-.36,1.46-.19,2.81-.15,4.26,.05,2.62,.35,5.28,.36,7.92,.36,2.2,0,4.41-.12,6.61-.03,1.46,.06,2.91,.2,4.36,.3,1.24,.08,2.53,.19,3.77,0,2.62-.41,5.23-1.74,7.23-3.45,.92-.79,1.78-1.72,2.26-2.84,.2-.47,.8-2.23-.21-2.2-.57,.02-1.11,.39-1.61,.62-.47,.21-.95,.4-1.44,.58-1.12,.4-2.28,.71-3.44,.96-2.64,.58-5.34,.88-8.04,1.04-5.09,.31-10.35,.21-15.38-.75-2.47-.47-4.84-1.52-7.13-2.51-2.24-.97-4.43-2.07-6.69-2.96-2.77-1.09-6.08-1.1-8.94-.33-2.12,.57-4.06,1.79-5.95,2.88-2.18,1.25-4.34,2.54-6.56,3.71-.84,.44-1.69,.89-2.59,1.2-1.59,.55-3.31,.55-4.91,.06-2.35-.72-3.96-2.45-6-3.69-2.51-1.52-5.44-1.74-8.29-1.3-1.28,.2-2.55,.55-3.68,1.18-1.14,.63-1.91,1.6-2.87,2.44-.93,.82-2.65,1.92-3.46,.32-.27-.53-.14-1.17-.29-1.73-.13-.53-.42-1-.65-1.49-1.24-2.53-1.87-5.38-.73-8.07,.55-1.3,1.31-2.51,2.13-3.66,.41-.57,.84-1.12,1.31-1.64,.24-.26,.76-.88,1.18-.68,.51,.24-1.03,2.46-1.22,2.81-.56,1.04-1.12,2.09-1.61,3.16-1.31,2.88,.6,6.13,1.83,8.69,.54-.47,1.09-.93,1.64-1.39,.38-.32,.77-.63,1.17-.93,.25-.19,.1-.38,.04-.67-.07-.3-.13-.59-.18-.89-.39-2.18-.4-4.46,.2-6.61,1.04-3.69,3.9-6.53,7.61-7.52,2.38-.64,4.72-.41,7.09,.11,1.41,.31,2.82,.69,4.19,1.15,1.36,.45,2.65,1,4.06,1.27,1.67,.31,3.39,.38,5.09,.27,1.38-.09,2.84-.23,4.16-.69,1.96-.69,3.8-1.83,5.56-2.9,1.99-1.21,3.93-2.49,5.88-3.77,1.89-1.25,3.69-2.43,5.98-2.8,2.92-.47,5.62,.45,8.38,1.27,3.04,.9,6.25,1.86,9.45,1.41,1.95-.28,3.65-1.04,5.39-1.92,2.1-1.06,4.16-2.19,6.25-3.27,1.67-.87,3.38-1.83,5.18-2.41,1.27-.41,2.65-.44,3.97-.43,1.6,.02,3.2,.17,4.79,.39,2.34,.33,4.81-1.77,5.71-3.79,1.12-2.54-1.29-4.18-3.3-5.14h0Z"/>
      <path class="cls-1" d="M30.61,20.02c-.61,.29-1.22,.59-1.81,.9-.03,.01-.05,.03-.07,.04-1.28,.67-2.51,1.36-3.68,2.09,1.17-.72,2.39-1.42,3.66-2.08-11.66,6.06-18.99,14.83-18.99,24.58,0,18.29,25.78,33.11,57.59,33.11,18.18,0,34.39-4.85,44.95-12.42-.88-.22-2.82-.23-4.7-.21-3.86,4.27-12.82,4.26-17.04,3.99-.3,.42-.71,.77-1.17,1.01-2.6,1.3-9.19,2.32-14.8,1.84-.25,.61-.79,1.34-2.03,1.72-8.3,2.53-20.42,2.23-24.85-.55-9.66,.83-25.17-5.17-28.3-16.71-2.62-1.58-5.14-4.86-5.95-6.33-.26-.48-.64-1.37-.64-2.51,0-1.06,.33-2.34,1.41-3.7,.81-1.01,2.84-2.64,4.54-3.67-.46-1.27-.87-2.7-1.04-3.67-.07-.4-.1-.78-.1-1.16,0-2.05,1.02-3.77,2.87-4.73,.92-.48,2.46-.93,4.09-1.22-.24-.55-.43-1.07-.55-1.54-.13-.51-.19-1.02-.19-1.53,0-1.78,.76-3.49,2.09-4.52,.97-.75,3.66-2.17,6.97-2.98-.02-.26-.03-.51-.04-.76-.63,.27-1.25,.55-1.86,.84-.11,.05-.23,.11-.34,.16h0Z"/>
      <path class="cls-1" d="M126.06,63.38c-.21,.17-.41,.33-.6,.47-1.12,.8-1.98,1.09-3.11,1.66-.16,.15-.26,.25-.28,.26-.11,.11-.23,.22-.35,.32-.21,.2-.41,.4-.63,.59,0,0-.01,.01-.02,.02-.15,.13-.3,.27-.45,.4,0,0-.02,.01-.02,.02-.21,.18-.42,.37-.63,.55,0,0,0,0-.01,0-.16,.14-.33,.27-.49,.41-.01,.01-.03,.02-.04,.04-.21,.17-.42,.35-.64,.52,0,0-.01,.01-.02,.02-.17,.14-.35,.27-.53,.41-.01,.01-.03,.02-.04,.03-.21,.16-.42,.33-.64,.49,0,0-.01,0-.02,.01-.18,.13-.35,.26-.53,.39-.03,.02-.05,.04-.08,.06-.21,.15-.43,.31-.65,.46,0,0,0,0,0,0-.32,.23-.65,.45-.98,.67-.11,.08-.23,.15-.34,.23,0,0,0,0-.01,0-.19,.13-.39,.25-.58,.37-.04,.03-.08,.05-.12,.08-.22,.14-.44,.28-.66,.42,0,0-.01,0-.02,.01-.2,.13-.41,.25-.61,.37-.04,.02-.08,.05-.12,.07-.15,.09-.31,.18-.46,.27-.43,.25-.87,.5-1.31,.75-.12,.07-.24,.14-.37,.21,0,0,0,0-.01,0-.2,.11-.41,.22-.62,.33-.06,.03-.12,.07-.18,.1-.23,.12-.46,.25-.69,.37,0,0,0,0,0,0-.25,.13-.51,.26-.76,.38-.03,.01-.05,.02-.07,.04-.24,.12-.47,.23-.71,.35,0,0-.01,0-.02,0-.21,.1-.43,.21-.65,.31-.06,.03-.13,.06-.19,.09-.24,.11-.48,.23-.73,.34,0,0-.01,0-.02,0-.26,.12-.52,.23-.79,.34-.03,.01-.05,.02-.08,.04-.22,.1-.44,.19-.66,.29-.27,.11-.54,.22-.81,.34-.06,.02-.12,.05-.19,.08-.25,.1-.51,.21-.77,.31h0c-.26,.1-.52,.2-.78,.3-.04,.02-.09,.03-.14,.05-.26,.1-.52,.2-.79,.3-.01,0-.03,0-.04,.01-.25,.09-.51,.18-.77,.28-.04,.01-.09,.03-.13,.05-.27,.1-.54,.19-.81,.29,0,0,0,0,0,0-.22,.08-.45,.15-.68,.23-.09,.03-.18,.06-.26,.09-.28,.09-.55,.19-.83,.27h0c-.21,.07-.43,.13-.64,.2-.1,.03-.21,.06-.31,.1-.28,.09-.57,.18-.85,.26,0,0-.01,0-.02,0-.25,.07-.5,.14-.75,.21-.06,.02-.13,.04-.2,.06-.29,.08-.59,.17-.88,.25-.01,0-.03,0-.04,.01-.26,.07-.52,.14-.78,.2-.05,.01-.1,.03-.15,.04-.3,.08-.6,.16-.9,.23-.01,0-.02,0-.03,0-.18,.04-.36,.08-.54,.13-.14,.03-.28,.07-.41,.1-.31,.07-.61,.15-.92,.22-.02,0-.03,0-.05,.01-.13,.03-.26,.06-.4,.09-.18,.04-.36,.08-.55,.12-.31,.07-.63,.14-.94,.2,0,0,0,0-.01,0-.18,.04-.37,.07-.55,.11-.15,.03-.3,.06-.45,.09-.32,.06-.63,.13-.95,.18,0,0-.02,0-.03,0-.4,.07-.81,.14-1.21,.21-.25,.04-.5,.09-.75,.13-.01,0-.02,0-.04,0-.11,.02-.22,.03-.34,.05-.22,.03-.45,.07-.67,.1-.32,.05-.65,.1-.97,.15-.01,0-.03,0-.04,0-.07,0-.13,.02-.2,.02-.27,.04-.54,.07-.81,.11-.33,.04-.66,.09-.99,.13,0,0-.02,0-.02,0-.19,.02-.38,.04-.57,.06-.16,.02-.33,.04-.5,.05-.32,.04-.65,.07-.97,.11-.38,.04-.77,.07-1.15,.1-.32,.03-.63,.06-.94,.08,0,0-.02,0-.03,0-.03,0-.06,0-.09,0-.36,.03-.72,.05-1.08,.07-.3,.02-.6,.05-.91,.06-.43,.03-.86,.04-1.29,.06-.28,.01-.56,.03-.84,.04-.49,.02-1,.03-1.49,.04-.22,0-.43,.02-.65,.02-.72,.01-1.44,.02-2.17,.02-.98,0-1.96-.02-2.94-.04-.08,0-.16,0-.23,0-.93-.03-1.84-.07-2.76-.12-.12,0-.25-.01-.37-.02-.88-.05-1.76-.11-2.63-.19-.15-.01-.3-.02-.45-.04-.85-.08-1.7-.16-2.54-.26-.16-.02-.32-.04-.48-.06-.83-.1-1.66-.2-2.48-.32-.16-.02-.32-.04-.48-.07-.82-.12-1.64-.25-2.45-.39-.14-.02-.28-.05-.42-.07-.83-.15-1.65-.3-2.46-.47-.1-.02-.2-.04-.3-.06-.84-.17-1.66-.35-2.48-.55-.02,0-.05,0-.07-.01-.04-.01-.08-.02-.12-.03-.59-.14-1.17-.29-1.75-.44-.2-.05-.39-.1-.58-.15-.58-.15-1.16-.31-1.73-.47-.04-.01-.07-.02-.11-.03-.04-.01-.08-.02-.13-.04-.55-.16-1.09-.32-1.62-.49-.18-.06-.37-.12-.55-.17-.46-.15-.92-.3-1.37-.45-.13-.04-.25-.08-.38-.13-.55-.19-1.1-.39-1.64-.59-.16-.06-.33-.12-.49-.18-.42-.16-.84-.32-1.26-.48-.15-.06-.3-.12-.45-.18-.53-.21-1.05-.43-1.57-.65-.13-.06-.27-.12-.4-.17-.41-.18-.82-.36-1.22-.54-.16-.07-.31-.14-.47-.22-.5-.23-1-.47-1.49-.72-.08-.04-.16-.08-.24-.12-.43-.21-.85-.43-1.26-.65-.15-.08-.3-.16-.45-.24-.41-.22-.82-.45-1.23-.68-.07-.04-.15-.08-.23-.12-.46-.26-.92-.53-1.36-.8-.14-.08-.27-.17-.41-.25-.36-.22-.71-.44-1.05-.66-.11-.07-.22-.14-.33-.21-.43-.28-.85-.57-1.27-.86-.12-.08-.23-.16-.34-.24-.32-.23-.65-.46-.96-.7-.12-.09-.23-.17-.35-.26-.4-.3-.79-.6-1.17-.91-.08-.06-.16-.13-.23-.19-.32-.26-.63-.52-.93-.78-.11-.1-.22-.19-.33-.29-.35-.31-.7-.62-1.04-.93-.03-.03-.06-.06-.09-.08-.34-.31-.67-.64-.99-.96-.1-.1-.2-.2-.3-.3-.27-.28-.54-.56-.8-.85-.06-.07-.13-.13-.19-.2-.31-.34-.61-.69-.9-1.03-.08-.1-.16-.19-.24-.29-.23-.28-.46-.56-.67-.84-.07-.09-.15-.18-.22-.28-.27-.36-.53-.71-.78-1.07-.06-.08-.11-.17-.17-.25-.2-.3-.4-.59-.59-.89-.07-.1-.13-.21-.2-.31-.23-.37-.45-.74-.67-1.12-.03-.05-.05-.09-.08-.14-.19-.34-.37-.68-.54-1.02-.06-.11-.11-.22-.16-.33-.17-.34-.33-.69-.48-1.04-.02-.05-.04-.09-.06-.14-.17-.39-.32-.78-.47-1.17-.04-.11-.08-.21-.12-.32-.12-.33-.23-.65-.33-.98-.03-.08-.06-.17-.08-.25-.12-.4-.23-.8-.33-1.2-.02-.1-.04-.19-.07-.29-.08-.33-.15-.66-.21-.99-.02-.1-.04-.21-.06-.31-.07-.41-.14-.82-.19-1.23,0-.07-.01-.14-.02-.21-.04-.35-.07-.71-.1-1.07,0-.11-.02-.23-.02-.34-.02-.42-.04-.84-.04-1.27h0c0-12.45,9.88-23.52,25.19-30.55,.08-.28,.17-.56,.26-.83,.02-.05,.04-.09,.05-.14,.08-.22,.16-.43,.24-.64,.04-.11,.1-.22,.15-.34,.06-.14,.12-.28,.19-.41,.07-.15,.14-.29,.22-.43,.05-.09,.1-.19,.15-.29,.09-.17,.19-.33,.28-.5,.04-.06,.08-.13,.12-.19,.11-.18,.23-.36,.35-.54,.03-.04,.05-.08,.08-.12,.13-.19,.27-.38,.41-.57,.02-.02,.03-.04,.04-.06,.15-.2,.31-.4,.47-.59h0c.59-.7,1.24-1.34,1.94-1.92,0,0,0,0,0,0,.96-.79,2.01-1.46,3.14-1.99,.02,0,.04-.02,.06-.03,.31-.14,.62-.28,.94-.4,0,0,0,0,0,0,4.68-1.77,10.75-1.18,15.21,1.35,.15,0,.31,0,.46,0,.03-.02,.06-.04,.09-.07,.24-.2,.49-.39,.74-.57,.1-.07,.2-.13,.3-.2,.2-.13,.4-.26,.6-.38,.11-.07,.22-.13,.33-.19,.21-.12,.44-.23,.66-.34,.1-.05,.2-.1,.31-.15,.65-.3,1.33-.55,2.04-.75,.1-.03,.21-.06,.32-.09,.25-.06,.5-.12,.76-.18,.12-.03,.25-.05,.37-.07,.26-.05,.52-.08,.77-.12,.11-.01,.22-.03,.33-.04,2.29-.24,4.66,.04,6.83,.92,.17,.07,.35,.15,.53,.23,.11,.05,.22,.11,.34,.17,.07,.04,.14,.07,.21,.11,.14,.07,.28,.15,.42,.23,.05,.03,.1,.05,.15,.08,.15,.09,.31,.18,.47,.28,.04,.02,.07,.04,.1,.06,.17,.1,.34,.21,.51,.32,.03,.02,.05,.03,.07,.05,.18,.12,.36,.24,.54,.37,.01,.01,.03,.02,.05,.03,.19,.13,.38,.27,.57,.41,0,0,.01,0,.02,.02,.2,.15,.4,.3,.59,.45h0s.08,.06,.12,.1c.08,.06,.16,.12,.24,.18,11.03,.52,21.27,2.71,30.03,6.15h0c.73-.55,1.18-.77,1.41-.87-9.18-3.77-19.78-6.08-30.93-6.66-1.77-1.37-3.47-2.41-4.92-3-5.04-2.06-11.03-1.26-15.3,2.01-4.83-2.5-11.03-2.95-15.83-1.13-4.59,1.74-8.23,5.58-9.77,10.29-7.59,3.57-13.9,8.18-18.25,13.34-4.7,5.58-7.18,11.88-7.18,18.21,0,7.35,3.28,14.52,9.5,20.73,5.76,5.76,13.89,10.56,23.52,13.91,9.87,3.42,21.15,5.24,32.6,5.24,25.3,0,47.29-8.75,58.24-21.52,.16-.2,.3-.39,.4-.52,.02-.03,.04-.05,.05-.07h0Z"/>
      <path class="cls-1" d="M75.45,15.07c.87,.1,2,.27,3.3,.48,4.51,.71,11.21,1.75,16.57,1.06-7.15-2.3-15.23-3.74-23.84-4.1,1.36,1.07,2.75,2.05,3.97,2.56h0Z"/>
      <path class="cls-1" d="M133.39,22.14c-.9,2.02-3.37,4.12-5.71,3.79-1.59-.22-3.19-.37-4.79-.39-1.32-.02-2.7,.02-3.97,.43-1.8,.58-3.51,1.55-5.18,2.41-2.09,1.08-4.15,2.21-6.25,3.27-1.74,.88-3.44,1.65-5.39,1.92-3.2,.45-6.41-.5-9.45-1.41-2.77-.82-5.46-1.75-8.38-1.27-2.29,.37-4.1,1.56-5.98,2.8-1.94,1.28-3.89,2.56-5.88,3.77-1.77,1.08-3.6,2.22-5.56,2.9-1.31,.46-2.78,.6-4.16,.69-1.7,.11-3.42,.04-5.09-.27-1.41-.26-2.71-.81-4.06-1.27-1.37-.46-2.78-.84-4.19-1.15-2.37-.52-4.72-.75-7.09-.11-3.71,.99-6.57,3.83-7.61,7.52-.6,2.15-.59,4.43-.2,6.61,.05,.3,.11,.6,.18,.89,.06,.29,.21,.48-.04,.67-.4,.3-.78,.61-1.17,.93-.55,.46-1.1,.92-1.64,1.39-1.23-2.56-3.14-5.81-1.83-8.69,.49-1.08,1.05-2.12,1.61-3.16,.19-.35,1.72-2.57,1.22-2.81-.43-.21-.94,.42-1.18,.68-.47,.52-.91,1.07-1.31,1.64-.82,1.14-1.58,2.36-2.13,3.66-1.14,2.69-.51,5.54,.73,8.07,.24,.49,.52,.96,.65,1.49,.15,.56,.02,1.21,.29,1.73,.81,1.6,2.53,.49,3.46-.32,.97-.84,1.74-1.81,2.87-2.44,1.13-.63,2.4-.99,3.68-1.18,2.85-.44,5.78-.22,8.29,1.3,2.04,1.24,3.65,2.98,6,3.69,1.61,.49,3.32,.49,4.91-.06,.9-.31,1.75-.76,2.59-1.2,2.22-1.17,4.38-2.47,6.56-3.71,1.89-1.08,3.82-2.3,5.95-2.88,2.85-.77,6.16-.76,8.94,.33,2.27,.89,4.46,1.99,6.69,2.96,2.29,.99,4.66,2.04,7.13,2.51,5.03,.96,10.28,1.06,15.38,.75,2.7-.16,5.4-.47,8.04-1.04,1.16-.25,2.32-.56,3.44-.96,.49-.17,.97-.36,1.44-.58,.51-.23,1.04-.6,1.61-.62,1.01-.03,.41,1.73,.21,2.2-.48,1.12-1.34,2.06-2.26,2.84-2.01,1.72-4.61,3.04-7.23,3.45-1.24,.19-2.52,.09-3.77,0-1.45-.1-2.9-.24-4.36-.3-2.2-.09-4.41,.03-6.61,.03-2.64,0-5.3-.01-7.92-.36-1.45-.19-2.81-.24-4.26-.05-1.13,.15-2.27,.26-3.41,.36-5.39,.47-10.83,.68-16.25,.62-1.1-.01-2.19-.08-3.29-.11-.68-.02-1.42,0-2.05,.28-.5,.23-.94,.66-1.4,.97-2.18,1.47-4.63,2.56-7.1,3.46-2.71,.98-5.53,1.72-8.4,2.1-2.67,.35-5.26,.24-7.9-.3-5.35-1.1-10.7-3.53-14.51-7.53-1.74-1.82-3.12-3.99-3.85-6.41-.82-2.71-.69-5.61-.31-8.39,.74-5.33,3.01-10.54,7-14.24,1.06-.98,2.23-1.85,3.49-2.57,.26-.15,1.06,.85,1.3,1.05,.22,.18,1.22,1.05,1.55,.71,.35-.36-.68-1.49-.85-1.73-.54-.83-.9-1.77-.99-2.76-.17-2.04,.77-4,1.78-5.71,.24,.23,1.92,1.9,2.2,1.35,.17-.34-.29-.94-.45-1.2-.3-.5-.52-1.04-.69-1.6-.69-2.28-.66-5.13,.68-7.18,1.43-2.19,4.42-3.04,6.89-3.04,2.7,0,4.96,1.03,6.99,2.74,1.55,1.31,3.03,2.7,4.67,3.91,.8,.59,1.64,1.13,2.53,1.57,.35,.17,1.75,.95,2.06,.36,.24-.45-.87-.93-1.17-1.12-.62-.39-1.23-.81-1.83-1.24-1.35-.98-2.91-2.14-3.69-3.65,2.56-.07,5.29,.54,7.68,1.43,1.16,.43,2.26,1.35,3.52,1.44,1.72,.12,3.44,.07,5.16,.19,3.24,.23,6.46,.64,9.67,1.14,2.2,.35,4.4,.83,6.61,1.05,2.36,.23,4.75,.25,7.12,.13,1.81-.09,3.83-.16,5.53-.82-.54,.9-1.53,1.61-2.35,2.23-.35,.26-.71,.53-1.09,.75-.22,.13-.92,.58-.26,.69,.6,.09,1.45-.36,1.98-.61,.7-.34,1.35-.77,1.97-1.24,.99-.77,1.8-1.69,2.66-2.59,1.66-1.72,3.99-3,6.19-3.89,2.2-.89,5.16-1.48,7.43-.47,.74,.33,1.35,.87,1.93,1.44,.86,.85,1.71,1.68,2.71,2.37,1.1,.77,2.3,1.41,3.58,1.84,.38,.13,3.23,1.01,2.91,.01-.09-.29-.58-.48-.51-.77,.11-.45,.38-.86-.28-.99-1.12-.21-2.13,.63-3.23,.04-.96-.51-1.68-1.37-2.37-2.19-.63-.76-1.24-1.71-2.06-2.3,1.96-1.37,5.28-2.61,7.21-.52,.59,.64,.84,1.48,1.35,2.17,.91,1.23,2.08,1.88,3.42,2.52,2.01,.96,4.43,2.6,3.3,5.14h0Zm-2.83,10.04c-1.03,1.63-2.35,3.47-4.1,4.38-.65,.34-1.61,.33-1.04-.62,.44-.74,.94-1.45,1.36-2.2,.89-1.61,1.87-3.45,2.04-5.31,.7,.1,1.53,0,2.11-.42,.5-.37,1.05-.98,1.7-1.03,0,1.82-1.13,3.72-2.07,5.21h0Zm-9.02,21.19c.5-.53,.99-1.09,1.35-1.72,.17-.3,.32-1,.79-.87,.45,.11,.64,.76,.73,1.15,.16,.76,.29,2.43-.43,2.96-.78,.58-2,.69-2.94,.64,.21-.7,.44-1.43,.5-2.16h0Zm-1.8-14.85c.9-1.63,1.64-3.37,2.19-5.16,.53-1.73,1-3.67,.67-5.48,1.48-.21,3.29-.18,4.72,.3-.48,1.94-1.32,3.81-2.29,5.55-.86,1.55-1.86,3.08-3.08,4.37-.47,.5-1.01,1.02-1.64,1.32-.84,.39-.92-.27-.57-.9h0Zm-2.36,14.25c.41-.55,.88-1.63,1.54-1.88,.99-.37,1.28,1.5,1.29,2.11,0,.53-.06,1.07-.18,1.58-.04,.18-.24,1.21-.45,1.25-.79,.15-1.64,.3-2.45,.25,.14-1.09,.31-2.21,.25-3.31h0Zm-4.07-10.34c-.36,.16-.96,.33-1.24-.06-.32-.44-.04-1.1,.06-1.57,.26-1.25,.38-2.53,.45-3.8,.08-1.45,.08-2.92-.11-4.37-.04-.31-.1-.63-.16-.93,.37-.11,.72-.25,1.07-.41,.74-.34,1.44-.76,2.13-1.19,1.02-.65,1.97-1.25,3.12-1.66,.58-.2,1.18-.38,1.79-.44,.31-.03,.38-.04,.44,.26,.05,.24,.07,.49,.07,.74,.04,2.41-1.01,4.92-2.04,7.05-.6,1.22-1.29,2.36-2.18,3.4-.92,1.08-2.07,2.41-3.39,3h0Zm-1.89,11.36c.96-.91,2.03-1.96,2.6-3.18,.17-.37,.67-1.38,1.24-1.07,.51,.27,.54,1.14,.59,1.64,.12,1.55,0,3.15-.24,4.68-.06,.4-.04,.52-.44,.61-.31,.07-.63,.13-.95,.18-.75,.11-1.5,.16-2.26,.18-1.52,.05-3.06,0-4.57-.2,1.52-.62,2.85-1.72,4.03-2.84h0Zm-3.95-4.03c1.48,.45,2.98,.86,4.48,1.21-1.15,1.43-2.6,2.85-4.27,3.67,.13-1.61,.11-3.29-.21-4.88h0Zm-3.79-6.93c-.48,.34-1.48,.78-1.74-.05-.18-.55,.13-1.24,.18-1.81,.13-1.56,.09-3.44-.64-4.87,1.3-.03,2.62-.41,3.84-.82,1.23-.41,2.65-.91,3.58-1.84-.45,3.5-2.26,7.32-5.22,9.38h0Zm-2.48,10.87c1.24-.86,2.53-1.94,3.18-3.34,.16-.34,.59-1.16,1.09-1,.57,.17,.47,1.26,.48,1.69,.06,1.82,.1,3.68-.32,5.46-.07,.3-.53,.19-.82,.19-.35,0-.69,0-1.04,0-.84-.01-1.67-.05-2.51-.11-1.49-.1-3.05-.24-4.46-.75,1.57-.43,3.06-1.21,4.39-2.13h0Zm-10.51-19.85c2.29,.74,4.59,1.56,6.97,1.96-.33,1.58-1.5,2.9-2.73,3.89-.86,.7-2.57,2.06-3.78,1.68-.65-.21-.48-.82-.35-1.32,.15-.57,.21-1.17,.25-1.75,.1-1.45,.13-3.07-.36-4.46h0Zm-9.67,4.9c-.23-1.19-.96-2.21-1.87-2.99,1.27-1.27,3.2-2.22,4.94-2.6,.44-.1,.88-.15,1.33-.13,.2,.01,.4,.04,.59,.1,.3,.08,.24,.27,.24,.56,.02,1.21-.3,2.42-.78,3.52-.44,1.01-1.04,1.98-1.83,2.76-.44,.43-1.74,1.57-2.41,1.06-.29-.22-.21-.69-.17-.99,.05-.42,.03-.86-.05-1.27h0Zm-10.95,2.02c.99-.42,1.96-.91,2.89-1.44,.85-.48,1.76-.99,2.48-1.67,.55,2.66-.86,5.68-2.76,7.49-.36,.34-.99,.94-1.53,.61-.47-.29-.1-.94-.07-1.36,.08-1.23-.33-2.61-1-3.63h0Zm-8.18,1.85c1.53,.13,3.33-.18,4.77-.7-.09,1.29-.73,2.51-1.53,3.51-.79,.99-2,2.24-3.26,2.59-.39,.11-.92,0-.75-.53,.14-.44,.39-.83,.5-1.29,.28-1.14,.43-2.4,.27-3.57h0Zm-8.18-1.5c1.51,.72,3.41,1.17,5.07,1.3-.98,2.05-3.62,3.58-5.77,4.07-.36,.08-1.11,.15-1.09-.41,.01-.44,.5-.95,.71-1.34,.56-1.06,1.17-2.4,1.08-3.63h0Zm-7.99,4.49c-.43,.68-1.53,0-1.96-.32-1.52-1.15-2.33-3.12-2.54-4.97,1.2-.88,3.07-1.1,4.51-1.03,.34,.02,.68,.06,1.01,.14,.14,.04,.27,.08,.4,.14,.26,.12,.25,.14,.11,.39-.49,.88-.88,1.81-1.14,2.78-.13,.5-.23,1.01-.27,1.53-.03,.41,.11,.97-.12,1.34h0Zm-1.09,7.55c-1.66-.59-3.82-.27-5.47,.2,.06-1.18,.52-2.36,1.12-3.36,.36-.6,1.23-2,2.11-1.69,.42,.14,.47,.61,.49,.98,.02,.42,.14,.84,.27,1.24,.3,.93,.74,1.97,1.49,2.63h0Zm6.27,1.21c.47,.67,1,1.61,1,2.46-.34-.47-.9-.82-1.37-1.13-.72-.48-1.47-.91-2.24-1.32-.55-.29-1.11-.59-1.7-.77-.03-1.03,.29-2.07,.71-3.01,.29-.64,.69-1.56,1.36-1.88,1.03-.5,.74,.98,.74,1.47,0,1.39,.72,3.04,1.5,4.17h0Zm5.37-2.51c-.1-.38,.06-.87,.51-.88,.48-.01,.85,.46,1.1,.81,.61,.83,1,1.82,1.26,2.81,.25,.94,.4,1.92,.35,2.89-.02,.49-1.71,.82-2.11,.91-.88,.18-1.8,.2-2.66-.05-.45-.13-.87-.35-1.24-.63-.28-.22-.42-.29-.27-.63,.1-.23,.24-.43,.41-.61,.66-.69,1.48-1.04,1.97-1.9,.41-.73,.91-1.85,.67-2.71h0Zm9.94-2.61c-.2-1.51,1.09-.66,1.72-.17,.92,.73,2.03,1.59,2.55,2.68-1.91,.86-3.94,1.56-5.61,2.87,.53-.81,.82-1.81,1.05-2.75,.2-.83,.4-1.77,.29-2.64h0Zm11.64-4.26c-.23-1.08,.73-.77,1.3-.36,.76,.56,1.4,1.3,2,2.01,.63,.74,1.21,1.52,1.74,2.34,.4,.62,.85,1.3,1.03,2.03-1.21-.83-2.78-1.11-4.21-1.25-1.22-.11-2.57-.17-3.76,.14,1.27-1.01,2.26-3.29,1.9-4.92h0Zm15.61,10.09c-1-.8-2.25-1.34-3.42-1.84-1.09-.47-2.19-.9-3.31-1.32,1.48-.34,2.64-1.6,3.41-2.84,.31-.5,.6-1.05,.76-1.62,.19-.7,.64-1.15,1.13-.39,.69,1.05,.93,2.51,1.18,3.72,.27,1.36,.56,2.92,.25,4.3h0Zm1.14-5.47c-.31-1.16-.69-2.65-1.54-3.56-.62-.65-1.69-1.29-2.56-.73-.49,.31-.73,.89-.86,1.43-.16,.62-.48,1.2-.85,1.72-.8,1.12-1.94,2.15-3.28,2.52-.26,.07-.36-.54-.46-.77-.14-.33-.29-.66-.45-.98-.37-.72-.79-1.41-1.26-2.07-.84-1.19-1.83-2.32-2.99-3.2-.86-.66-2.28-1.56-3.31-.72-.81,.66-.43,1.92-.61,2.83-.24,1.21-.82,2.41-1.79,3.2-.6,.49-1.44,.62-2.15,.91-.11,.04-1.03,.5-1.06,.47-.16-.19-.34-.37-.51-.54-.71-.73-1.47-1.42-2.31-1.99-.72-.49-1.81-1.16-2.71-.82-.88,.33-.85,1.44-.92,2.22-.09,.91-.26,1.82-.52,2.7-.57,1.91-1.68,3.86-3.65,4.58-.42-2.51-.78-5.6-3.36-6.85-.85-.41-1.88-.44-2.23,.6-.19,.57-.08,1.15-.16,1.73-.08,.6-.31,1.2-.64,1.7-.32,.48-.76,.9-1.3,1.12-.39,.16-.47-.18-.68-.5-.24-.37-.47-.75-.69-1.14-.37-.68-.69-1.39-.9-2.14-.22-.79-.16-1.5-.17-2.3-.01-1.19-1.17-1.76-2.22-1.39-1.19,.42-1.95,1.75-2.41,2.85-.24,.58-.43,1.19-.54,1.81-1.23-1.11-1.22-2.68-1.66-4.15-.51-1.73-2.52-1.15-3.49-.2-1.04,1.02-1.82,2.44-2.27,3.81-.08,.23-.26,.86-.27,1.44,0,0-.9,.19-1.3,.27-.77-3.84-.7-9.61,3.41-11.61,.66,2.2,2.59,4.88,5.03,5.18,.55,.07,1.16,0,1.61-.36,.51-.41,.48-.94,.47-1.54-.01-1.31,.49-2.62,1.1-3.76,.13-.24,.26-.48,.41-.71,.04-.06,.75,.15,.81,.16,.44,.1,2.83,.58,2.8,1.09-.07,1.09-.46,2.17-.93,3.13-.25,.52-.56,1.03-.42,1.64,.12,.52,.55,.87,1.04,1,1.19,.32,2.62-.37,3.67-.89,1.36-.67,2.63-1.56,3.74-2.59,.21-.19,.99-1.3,1.33-.94,.14,.15,.06,.83,.06,1,0,.71-.12,1.43-.34,2.1-.2,.63-.72,1.31-.45,1.99,.42,1.05,1.9,.92,2.74,.57,.95-.4,1.81-1.02,2.57-1.71,.98-.89,1.79-1.97,2.34-3.18,.13-.3,.34-1.43,.61-1.52,.24-.08,.8-.41,1.05-.37,.45,.45,.61,1.14,.65,1.75,.04,.66-.24,1.33-.12,1.97,.23,1.19,1.53,1.46,2.52,1.03,1.38-.59,2.47-2.02,3.24-3.26,.62-1.01,1.15-2.14,1.38-3.3,.09-.07,.6,.06,.71,.07,.47,.05,.95,.09,1.42,.14,.13,.01,.6-.02,.62,.13,.04,.32,.12,.64,.27,.93,.33,.66,.95,1.01,1.68,.95,.54-.04,1.06-.26,1.53-.52,.34-.18,.66-.4,.97-.62,.33-.24,.41-.27,.8-.22,3.15,.46,6.26,1.8,9.18,3,3.27,1.35,6.35,3.1,9.68,4.32-.92,1.45-1.95,2.61-3.36,3.63-1.52,1.09-3.26,2-5.1,2.38,.07-1.65-.22-3.32-.65-4.9h0Zm37.02-3.99c0,3.76-.94,7.46-2.59,10.82,.11-.84,.25-2.01-.73-2.38-.8-.3-1.79-.05-2.55,.26,.11-1.04,.01-2.17-.38-3.14-.14-.36-.34-.7-.59-1-.19-.22-.37-.25-.31-.55,.06-.28,.11-.56,.16-.84,.2-1.2,.29-2.43,.26-3.65-.02-1.15-.15-2.3-.38-3.43-.06-.28-.12-.56-.19-.84-.09-.36-.08-.48,.05-.83,.09-.23,.4-1.45,.6-1.43,1.7,.17,3.52-1.46,4.63-2.54,1.29,3.02,2,6.27,2,9.56h0Zm-34.04,22.16c-3.02,.32-6.41,.25-9.21-1.08-.36-.16-.75-.6-.43-.99,.37-.45,1.15-.39,1.66-.45,.75-.09,1.5-.18,2.24-.29,.33-.05,.7-.17,1.03-.11,.43,.08,.86,.15,1.29,.2,3.61,.46,7.29,.31,10.92,.23-1.94,1.71-5.02,2.23-7.5,2.49h0Zm-10.35,1.55c-2.08,.67-4.3,.97-6.48,1.15-2.94,.24-6,.26-8.89-.42-1.36-.32-2.91-.83-4.04-1.65-.45-.33-.94-.8-1-1.39-.02-.21,.02-.42,.12-.61,.21-.38,.66-.21,1.04-.2,3.05,.13,6.11,.04,9.16-.07,1.61-.06,3.22-.14,4.82-.24,.72-.04,1.44-.09,2.15-.14,.4-.03,.77-.09,1.17,.03,.38,.11,.74,.26,1.09,.44,.86,.46,1.54,1.11,2.19,1.83,.65,.72-.81,1.1-1.34,1.28h0Zm-14.94,2.77c-.51,.45-1.6,.54-2.25,.7-.96,.23-1.92,.43-2.89,.59-1.9,.31-3.81,.51-5.73,.59-3.51,.15-7.47,.14-10.78-1.17,2.45-.46,4.88-1.09,7.24-1.9,1.18-.41,2.35-.86,3.49-1.36,.86-.38,1.64-.4,2.58-.3,1.79,.18,3.55,.7,5.25,1.27,.66,.22,1.31,.46,1.96,.69,.31,.11,1.68,.45,1.14,.9h0ZM20.48,36.96c-.26-1.49,.46-2.62,1.85-3.15,1.6-.6,3.39-.91,5.09-.97-2.49,2.29-4.38,5.16-5.65,8.29-.56-1.33-1.04-2.75-1.29-4.17h0Zm-.85,16.14c0,.23,0,.46,.02,.69-1.13-.86-2.14-1.92-3-3.05-.82-1.08-1.38-2.2-.68-3.51,.52-.97,1.43-1.67,2.28-2.33,.89-.69,1.83-1.39,2.85-1.88-1.03,3.25-1.46,6.67-1.46,10.08h0Zm8.03-28.13c1.48-1.15,3.48-1.89,5.27-2.38-.64,1.11-1.09,2.36-1.45,3.58-.26,.86-.32,1.6-.36,2.48-.01,.34-.03,.67-.04,1.01,0,.13-.48,.43-.58,.52-.62,.54-1.21,1.12-1.86,1.64-1.21-1.73-3.26-5.07-.98-6.84h0ZM62.64,10.44c1.67,.03,3.23,.77,4.48,1.84,.87,.74,1.79,1.44,2.73,2.09,.6,.41,1.34,1,2.08,1.12-1.83-.26-3.68-.48-5.53-.54-.27,0-.54-.01-.81-.01-.37,0-.51,0-.84-.2-.72-.43-1.47-.82-2.24-1.16-1.44-.64-2.95-1.06-4.49-1.37,1.3-1.07,2.91-1.81,4.62-1.77h0Zm68.84,5.52c-2.8-.65-3.48-4-5.46-5.67-2.05-1.72-4.8-1.56-7.14-.56-.75,.32-1.7,.83-2.72,1.54-2.1-1.07-4.21-.71-5.57-.52-2.15,.29-4.86,1.42-5.94,2.01-2.08,1.14-2.65,2.33-3.82,3.02-.44,.26-1.82,1.05-4.53,1.48-3.74,.6-6.38,.3-8.19,.22-5.34-.36-10.98-1.44-12.9-1.7-.97-.25-3.83-2.32-6.06-4.2-3.34-2.83-4.25-2.95-5.76-3.13-5.62-.67-8.04,3.2-8.05,3.22,0,0-2.63-.11-4.15,0-3.22-2.23-7.22-2.87-10.48-2.16-1.65,.39-3.18,1.16-4.37,2.36-.02,.02-1.34,1.29-2.07,3.34-.03,.08-.93,2.43-.52,5.16-4.58,1.07-6.73,2.57-7.18,2.89-1.13,.79-1.67,2.1-1.84,2.99-.25,1.57,.25,3.27,1.02,4.72-1.68,.21-3.38,.64-4.46,1.09-.72,.34-3.18,1.51-2.85,4.82,0,.03,.1,1.48,1.29,4.58-1.74,.88-3.83,2.74-4.49,3.37-1.79,1.74-1.66,3.81-1.65,3.96,0,0,0,.01,0,.01,.44,3.31,4.83,6.94,6.47,7.99,1.93,7.59,9.28,12.24,14.33,14.17,.12,.05,6.85,2.87,13.5,2.24,4.09,2.61,12,2.3,12.67,2.3,4.05,.02,8.71-.93,8.75-.94,4.38-.79,4.49-1.64,4.67-2.56,6.88,.65,12.42-.83,12.62-.88,2.7-.63,3.08-1.27,3.52-1.95,5.73,.45,9.99-.39,11.32-.74,3.41-.88,4.88-2.17,5.8-3.22,3.07-.03,4.45,.02,5.41,.28,2.82,.77,6.11,.09,7.09-.16,3.01-.81,6.13-2.58,8.87-5.51,.86-1.33,1.63-2.71,2.27-4.18,2.74-6.37,2.77-13.51,.07-19.9-.11-.27-.23-.53-.35-.8,3.19-3.78,3.7-7.65,3.8-8.89,.02-.29,.03-.39,.21-.62,.46-.58,.87-1.33,1.04-1.75,.6-1.47,.65-3.17-.02-4.63-.78-1.67-2.39-2.71-4.14-3.11h0Z"/>
      <path class="cls-1" d="M48.36,26.37c-2.71-.44-4.05-3.14-2.44-6.93,.8,.17,2.81,1.77,3.18,2.28,.1,.67-.5,1.67-.97,2.11-.73,.67-.54,1.11,.57,.94,.84-.13,2.01-.84,2.51-1.64,.5,.5,2.64,1.34,2.64,1.34-1.3,2.01-3.19,2.28-5.49,1.91h0Zm10.2-3.31c-2.14,.4-4.15,.4-7.22-2.01-1.9-1.48-3.21-4.01-4.95-4.82-1.74-.8-3.52,.08-5.08,1.74-.6,.64-.5,1.17,.4,.77,.85-.38,1.91-.9,2.51-.7-1.51,4.92-.4,9.64,4.82,9.73-1.1,1.2-3.31,1.4-4.72,1.4s-1.33,.63-.1,.81c4.92,.7,9.33-1.31,12.48-5.32l2.01-.4c1.34-.4,.92-1.4-.14-1.2h0Z"/>
      <path class="cls-1" d="M118.27,20.85c-1.7-.3-3.31-.8-4.51-2.51-.5-.71-1.91-.8-3.11-.6-.95,.16-3.16,1.61-3.81,2.41-.9,1.1-.3,2.11,1,1.91,1.3-.2,3.11-1.7,3.61-2.21,.5-.5,.8-.7,1.81,.1,1,.8,2.81,1.71,4.92,1.71,1.3,0,1.3-.59,.1-.8h0Z"/>
      <g>
        <g>
          <path class="cls-1" d="M136.55,104.53l1.65-1.71c.9,.83,1.84,1.26,2.86,1.26,.61,0,1.04-.26,1.04-.69,0-.37-.25-.54-1.55-1.04-1.46-.57-2.4-1.19-2.4-2.55,0-.79,.32-1.49,.85-2.02,.7-.7,1.79-1.12,3.07-1.12,1.63,0,2.91,.53,3.8,1.38l-1.59,1.76c-.7-.61-1.51-1.01-2.45-1.01-.62,0-1.01,.29-1.01,.65,0,.38,.28,.52,1.55,1.02,1.43,.54,2.41,1.19,2.41,2.58,0,.83-.32,1.55-.86,2.09-.7,.7-1.8,1.11-3.08,1.11-1.81,0-3.29-.62-4.3-1.69h0Z"/>
          <path class="cls-1" d="M106.4,103.18c.57-.57,.91-1.41,.91-2.2,0-1.18-.71-2.05-2.04-2.05-.7,0-1.31,.29-1.76,.74-.57,.58-.91,1.43-.91,2.21,0,1.18,.72,2.05,2.04,2.05,.7,0,1.31-.3,1.76-.75h0Zm3.52-2.41c0,1.44-.6,2.85-1.61,3.86-.98,.97-2.33,1.6-3.89,1.6-2.65,0-4.42-1.8-4.42-4.15,0-1.44,.59-2.83,1.61-3.85,.98-.98,2.33-1.6,3.89-1.6,2.65,0,4.42,1.8,4.42,4.14h0Z"/>
          <path class="cls-1" d="M118.18,101.25c.7,0,1.27-.18,1.59-.5,.21-.21,.33-.48,.33-.79,0-.25-.08-.45-.25-.61-.21-.21-.58-.33-1.12-.33h-1.4l-.61,2.23h1.47Zm-.86,2.01h-1.14l-.75,2.81h-2.58l2.5-9.26h3.49c1.54,0,2.55,.33,3.17,.95,.49,.49,.71,1.16,.71,1.9,0,.87-.28,1.65-.87,2.23-.4,.4-.98,.78-1.92,1.05l1.44,3.12h-2.83l-1.23-2.81h0Z"/>
          <path class="cls-1" d="M96.37,97.76c-.63-.62-1.64-.95-3.18-.95h-3.49l-2.5,9.26h2.58l.75-2.81h.65c.33,0,.65-.02,.98-.06l.86-.1c.47-.06,.94-.15,1.39-.31,.75-.26,1.5-.59,1.8-.89,.59-.58,.87-1.36,.87-2.23,0-.74-.22-1.42-.71-1.91Zm-2.25,2.99c-.32,.32-.89,.5-1.59,.5h-1.47l.61-2.23h1.4c.54,0,.91,.12,1.13,.33,.17,.16,.25,.36,.25,.61,0,.31-.12,.58-.33,.79Z"/>
          <path class="cls-1" d="M74.95,104.53l1.65-1.71c.9,.83,1.84,1.26,2.86,1.26,.61,0,1.04-.26,1.04-.69,0-.37-.25-.54-1.55-1.04-1.46-.57-2.39-1.19-2.39-2.55,0-.79,.32-1.49,.85-2.02,.7-.7,1.79-1.12,3.07-1.12,1.63,0,2.91,.53,3.8,1.38l-1.59,1.76c-.7-.61-1.51-1.01-2.45-1.01-.62,0-1.01,.29-1.01,.65,0,.38,.28,.52,1.55,1.02,1.43,.54,2.41,1.19,2.41,2.58,0,.83-.32,1.55-.86,2.09-.7,.7-1.8,1.11-3.08,1.11-1.81,0-3.29-.62-4.3-1.69h0Z"/>
          <polygon class="cls-1" points="64.61 96.81 72.02 96.81 71.43 98.98 66.56 98.98 66.18 100.39 70.59 100.39 70.05 102.4 65.63 102.4 65.24 103.89 70.18 103.89 69.6 106.07 62.11 106.07 64.61 96.81 64.61 96.81"/>
          <polygon class="cls-1" points="128.42 99.06 125.66 99.06 126.25 96.81 134.36 96.81 133.77 99.06 130.99 99.06 129.11 106.07 126.54 106.07 128.42 99.06 128.42 99.06"/>
        </g>
        <g>
          <path class="cls-1" d="M2.92,102.11c0-1.4,.58-2.83,1.67-3.92,.98-.98,2.41-1.65,4.13-1.65,1.88,0,3.19,.91,3.74,2.34l-2.22,1.19c-.37-.77-.95-1.2-1.85-1.2-.71,0-1.36,.3-1.85,.79-.57,.58-.93,1.4-.93,2.27,0,1.18,.78,1.91,1.85,1.91,.81,0,1.39-.34,1.99-.94l1.73,1.53c-.9,1.02-2.12,1.73-3.88,1.73-2.55,0-4.38-1.57-4.38-4.06h0Z"/>
          <polygon class="cls-1" points="17.51 96.72 20.07 96.72 18.2 103.73 22.61 103.73 22.01 105.98 15.01 105.98 17.51 96.72 17.51 96.72"/>
          <path class="cls-1" d="M26.78,102.91c0-.46,.07-.98,.21-1.48l1.26-4.71h2.59l-1.31,4.89c-.08,.29-.13,.57-.13,.87,0,.83,.52,1.35,1.44,1.35,.5,0,.93-.17,1.26-.49,.33-.33,.58-.79,.78-1.54l1.36-5.09h2.59l-1.47,5.48c-.33,1.22-.79,2.12-1.44,2.77-.82,.82-1.98,1.19-3.41,1.19-2.37,0-3.73-1.2-3.73-3.24h0Z"/>
          <path class="cls-1" d="M44.93,100.41c.93,0,1.42-.36,1.42-.94,0-.44-.34-.69-1.12-.69h-1.6l-.42,1.63h1.73Zm-.74,3.51c.89,0,1.43-.4,1.43-.98,0-.48-.38-.73-1.12-.73h-1.79l-.46,1.71h1.94Zm-2.5-7.2h3.85c2.51,0,3.33,1.03,3.33,2.22s-.78,2.05-2.08,2.37c.82,.29,1.4,.9,1.4,1.85,0,1.6-1.34,2.82-4.21,2.82h-4.8l2.5-9.26h0Z"/>
        </g>
      </g>
    </g>
  </g>
</svg>